<svg height="60pt" viewBox="0 0 60 60" width="60pt" xmlns="http://www.w3.org/2000/svg"><path d="m58 27h-5.199219c-1.367187-10.316406-9.484375-18.433594-19.800781-19.800781v-5.199219c-.003906-.550781-.449219-.996094-1-1h-4c-.550781.003906-.996094.449219-1 1v5.199219c-10.316406 1.367187-18.433594 9.484375-19.800781 19.800781h-5.199219c-.550781.003906-.996094.449219-1 1v4c.003906.550781.449219.996094 1 1h5.199219c1.367187 10.316406 9.484375 18.433594 19.800781 19.800781v5.199219c.003906.550781.449219.996094 1 1h4c.550781-.003906.996094-.449219 1-1v-5.199219c10.316406-1.367187 18.433594-9.484375 19.800781-19.800781h5.199219c.550781-.003906.996094-.449219 1-1v-4c-.003906-.550781-.449219-.996094-1-1zm-29.5 19.929688c-8.773438-.773438-15.5-8.121094-15.5-16.929688s6.726562-16.15625 15.5-16.929688c.496094-.050781 1-.074218 1.5-.070312 9.390625 0 17 7.609375 17 17s-7.609375 17-17 17c-.5.003906-1.003906-.019531-1.5-.070312zm0 0" fill="#a4c2f7"/><path d="m55 27h-5.199219c-1.367187-10.316406-9.484375-18.433594-19.800781-19.800781v-5.199219c-.003906-.550781-.449219-.996094-1-1h-1c-.550781.003906-.996094.449219-1 1v5.199219c-10.316406 1.367187-18.433594 9.484375-19.800781 19.800781h-5.199219c-.550781.003906-.996094.449219-1 1v4c.003906.550781.449219.996094 1 1h5.199219c1.367187 10.316406 9.484375 18.433594 19.800781 19.800781v5.199219c.003906.550781.449219.996094 1 1h1c.550781-.003906.996094-.449219 1-1v-5.199219c10.316406-1.367187 18.433594-9.484375 19.800781-19.800781h5.199219c.550781-.003906.996094-.449219 1-1v-4c-.003906-.550781-.449219-.996094-1-1zm-25 20c-.5.003906-1.003906-.019531-1.5-.070312-.496094.050781-1 .074218-1.5.070312-9.390625 0-17-7.609375-17-17s7.609375-17 17-17c.5-.003906 1.003906.019531 1.5.070312.496094-.050781 1-.074218 1.5-.070312 9.390625 0 17 7.609375 17 17s-7.609375 17-17 17zm0 0" fill="#cad9fc"/><path d="m38 30c0 2.121094-.84375 4.15625-2.34375 5.65625s-3.535156 2.34375-5.65625 2.34375c-.503906 0-1.003906-.046875-1.5-.140625-3.773438-.71875-6.5-4.019531-6.5-7.859375s2.726562-7.140625 6.5-7.859375c.496094-.09375.996094-.140625 1.5-.140625 2.121094 0 4.15625.84375 5.65625 2.34375s2.34375 3.535156 2.34375 5.65625zm0 0" fill="#a4c2f7"/><path d="m35 30c0-4.339844-2.910156-7.859375-6.5-7.859375s-6.5 3.519531-6.5 7.859375 2.910156 7.859375 6.5 7.859375 6.5-3.519531 6.5-7.859375zm0 0" fill="#cad9fc"/><path d="m1 32c.003906.550781.449219.996094 1 1h3c-.550781-.003906-.996094-.449219-1-1v-4c.003906-.550781.449219-.996094 1-1h-3c-.550781.003906-.996094.449219-1 1zm0 0" fill="#fff"/><path d="m28 1c-.550781.003906-.996094.449219-1 1v5.199219c-10.316406 1.367187-18.433594 9.484375-19.800781 19.800781h3c1.367187-10.316406 9.484375-18.433594 19.800781-19.800781v-5.199219c.003906-.550781.449219-.996094 1-1zm0 0" fill="#fff"/><path d="m27 52.800781v5.199219c.003906.550781.449219.996094 1 1h3c-.550781-.003906-.996094-.449219-1-1v-5.199219c-10.316406-1.367187-18.433594-9.484375-19.800781-19.800781h-3c1.367187 10.316406 9.484375 18.433594 19.800781 19.800781zm0 0" fill="#fff"/><path d="m6.207031 26.871094c1.433594-10.761719 9.902344-19.230469 20.664063-20.660156l.257812 1.980468c-9.863281 1.316406-17.621094 9.074219-18.9375 18.9375zm0 0" fill="#fff"/><g fill="#428dff"><path d="m8.398438 22.15625c-.253907-.085938-.535157-.066406-.777344.054688-.242188.117187-.425782.332031-.507813.589843-.203125.664063-.359375 1.34375-.542969 2.015625l-.363281 2.054688 1.984375.257812.332032-1.882812c.167968-.613282.3125-1.234375.496093-1.847656.164063-.511719-.109375-1.0625-.621093-1.242188zm0 0"/><path d="m27.128906 8.191406-.257812-1.980468c-5.957032.804687-11.402344 3.804687-15.269532 8.40625l-.644531.820312c-.171875.207031-.25.480469-.210937.75.035156.265625.183594.507812.410156.660156.441406.300782 1.042969.21875 1.386719-.195312l.589843-.75c3.546876-4.21875 8.535157-6.96875 13.996094-7.710938zm0 0"/><path d="m8.714844 18.949219c-.136719.242187-.160156.527343-.074219.789062l.085937.175781c.035157.058594.078126.113282.125.160157.039063.050781.085938.097656.136719.132812.058594.039063.113281.074219.175781.101563.238282.109375.507813.125.757813.046875.117187-.046875.226563-.113281.316406-.199219.308594-.242188.4375-.644531.324219-1.019531-.042969-.121094-.105469-.238281-.1875-.339844-.082031-.105469-.179688-.191406-.292969-.261719-.230469-.128906-.503906-.164062-.757812-.089844-.257813.085938-.476563.265626-.609375.503907zm0 0"/><path d="m32 60h-4c-1.105469 0-2-.894531-2-2v-4.339844c-10.074219-1.695312-17.964844-9.585937-19.660156-19.660156h-4.339844c-1.105469 0-2-.894531-2-2v-4c0-1.105469.894531-2 2-2h5.199219c.554687 0 1 .449219 1 1s-.445313 1-1 1h-5.199219v4h5.199219c.503906 0 .925781.371094.992187.871094 1.292969 9.875 9.0625 17.644531 18.9375 18.9375.5.0625.871094.488281.871094.992187v5.199219h4v-5.199219c0-.503906.371094-.925781.871094-.992187 9.875-1.292969 17.644531-9.0625 18.9375-18.9375.0625-.5.488281-.871094.992187-.871094h5.199219v-4h-5.199219c-.503906 0-.925781-.371094-.992187-.871094-1.292969-9.875-9.0625-17.644531-18.9375-18.9375-.5-.0625-.871094-.488281-.871094-.992187v-5.199219h-4v5.199219c0 .554687-.449219 1-1 1s-1-.445313-1-1v-5.199219c0-1.105469.894531-2 2-2h4c1.105469 0 2 .894531 2 2v4.339844c10.074219 1.695312 17.964844 9.585937 19.660156 19.660156h4.339844c1.105469 0 2 .894531 2 2v4c0 1.105469-.894531 2-2 2h-4.339844c-1.695312 10.074219-9.585937 17.964844-19.660156 19.660156v4.339844c0 1.105469-.894531 2-2 2zm0 0"/><path d="m30 48c-9.941406 0-18-8.058594-18-18s8.058594-18 18-18 18 8.058594 18 18c-.011719 9.9375-8.0625 17.988281-18 18zm0-34c-8.835938 0-16 7.164062-16 16s7.164062 16 16 16 16-7.164062 16-16c-.011719-8.832031-7.167969-15.988281-16-16zm0 0"/><path d="m30 39c-4.972656 0-9-4.027344-9-9s4.027344-9 9-9 9 4.027344 9 9c-.007812 4.96875-4.03125 8.992188-9 9zm0-16c-3.867188 0-7 3.132812-7 7s3.132812 7 7 7 7-3.132812 7-7c-.003906-3.863281-3.136719-6.996094-7-7zm0 0"/></g></svg>