<?xml version="1.0" encoding="iso-8859-1"?>
<!-- Generator: Adobe Illustrator 19.0.0, SVG Export Plug-In . SVG Version: 6.00 Build 0)  -->
<svg version="1.1" id="Layer_1" xmlns="http://www.w3.org/2000/svg" xmlns:xlink="http://www.w3.org/1999/xlink" x="0px" y="0px"
	 viewBox="0 0 511.999 511.999" style="enable-background:new 0 0 511.999 511.999;" xml:space="preserve">
<path style="fill:#E54728;" d="M405.961,62.116L405.961,62.116c-82.821-82.821-217.101-82.821-299.922,0l0,0
	c-82.821,82.821-82.821,217.101,0,299.922L256,511.999l149.961-149.961C488.782,279.217,488.782,144.937,405.961,62.116z"/>
<path style="fill:#F95428;" d="M130.368,337.708c-33.558-33.558-52.04-78.175-52.04-125.633s18.481-92.074,52.04-125.631
	C163.924,52.887,208.542,34.406,256,34.406c47.457,0,92.074,18.481,125.631,52.038s52.04,78.175,52.04,125.631
	c0,47.458-18.481,92.075-52.04,125.631L255.998,463.34L130.368,337.708z"/>
<circle style="fill:#E6E6E6;" cx="256" cy="210.706" r="129.59"/>
<path style="fill:#CCCCCC;" d="M298.319,299.352c-71.573,0-129.594-58.021-129.594-129.594c0-24.945,7.055-48.238,19.266-68.008
	c-36.956,22.828-61.585,63.699-61.585,110.327c0,71.573,58.021,129.594,129.594,129.594c46.628,0,87.498-24.63,110.326-61.585
	C346.557,292.298,323.262,299.352,298.319,299.352z"/>
<path style="fill:#E54728;" d="M256,354.057c-78.289,0-141.98-63.691-141.98-141.98S177.712,70.097,256,70.097
	s141.98,63.692,141.98,141.98S334.289,354.057,256,354.057z M256,94.87c-64.628,0-117.207,52.579-117.207,117.207
	S191.371,329.284,256,329.284s117.207-52.579,117.207-117.207S320.628,94.87,256,94.87z"/>
<ellipse transform="matrix(-0.7071 -0.7071 0.7071 -0.7071 414.7711 493.1812)" style="fill:#FFFFFF;" cx="309.527" cy="160.689" rx="51.607" ry="30.964"/>
<path style="fill:#4D4D4D;" d="M340.796,265.178c-9.703-17.451-24.36-31.145-41.646-39.747c7.143-6.826,12.662-15.332,15.937-24.883
	c2.174-6.331,3.358-13.13,3.358-20.19c0-27.223-17.506-50.427-41.852-58.946c-6.455-2.271-13.377-3.496-20.589-3.496
	c-34.434,0-62.441,28.007-62.441,62.441c0,17.713,7.418,33.705,19.295,45.087c-17.286,8.602-31.957,22.282-41.646,39.76
	l-1.349,2.422c5.34,8.244,11.822,15.676,19.226,22.075l6.179-11.148c12.249-22.048,35.522-35.755,60.735-35.755
	c25.2,0,48.472,13.694,60.735,35.755l6.193,11.12c7.404-6.386,13.887-13.818,19.213-22.062L340.796,265.178z M256.004,215.274
	c-19.254,0-34.916-15.662-34.916-34.916s15.662-34.916,34.916-34.916c4.074,0,7.982,0.702,11.616,1.982
	c13.556,4.803,23.3,17.754,23.3,32.934c0,1.707-0.124,3.386-0.358,5.023C288.112,202.268,273.551,215.274,256.004,215.274z"/>
<path style="fill:#666666;" d="M318.445,180.358c0,7.06-1.184,13.859-3.358,20.19c-8.175-2.89-16.708-8.037-24.525-15.167
	c0.234-1.638,0.358-3.317,0.358-5.023c0-15.18-9.744-28.131-23.3-32.934c-1.707-9.386-0.055-17.74,5.423-23.218
	c1.073-1.073,2.271-2.009,3.551-2.794C300.939,129.932,318.445,153.136,318.445,180.358z"/>
<g>
</g>
<g>
</g>
<g>
</g>
<g>
</g>
<g>
</g>
<g>
</g>
<g>
</g>
<g>
</g>
<g>
</g>
<g>
</g>
<g>
</g>
<g>
</g>
<g>
</g>
<g>
</g>
<g>
</g>
</svg>
